<?xml version="1.0" encoding="utf-8"?>
<!-- Generator: Adobe Illustrator 24.1.2, SVG Export Plug-In . SVG Version: 6.00 Build 0)  -->
<svg version="1.1" xmlns="http://www.w3.org/2000/svg" xmlns:xlink="http://www.w3.org/1999/xlink" x="0px" y="0px"
	 viewBox="0 0 650.3 781.5" style="enable-background:new 0 0 650.3 781.5;" xml:space="preserve">
<style type="text/css">
	.st0{display:none;}
	.st1{display:inline;opacity:0.3;}
	.st2{fill:#009989;}
	.st3{opacity:0.3;fill:#009989;enable-background:new    ;}
	.st4{display:inline;fill:#191919;stroke:#191919;stroke-width:3;stroke-miterlimit:10;}
	.st5{fill:#AABF5E;}
	.st6{fill:none;stroke:#1D1D1B;stroke-miterlimit:10;}
</style>
<g id="Base" class="st0">
	<g id="base" class="st1">
		<path class="st2" d="M605.8,0"/>
		<path class="st2" d="M231.2,410.4c62-42.9,110.6-51.3,110.6-51.3C466.3,346.1,525.5,388,525.5,388c-61.1,13.1-92.4,38.3-92.4,38.3
			c-20.5,14.9-64.8,39.6-64.8,39.6c-66.2,28-112,12.1-112,12.1c134.8-32.2,141.8-84.9,141.8-84.9c-94.7,55-146.9,53.2-146.9,53.2
			c-43.4,0-75.6,11.2-75.6,11.2C90.3,481.8,39,539.2,39,539.2c41-71.8,93.8-93.5,93.8-93.5c5.2-6.5,3.9-13.1,3.9-13.1
			c7.9-270.9-40.6-259.1-40.6-259.1c2.1,0,348.6,2.4,373-15.7c0,0,13.1,81.1,6.5,98.2c0,0-13.1-52.6-88.7-52.6
			c-2.8,0-161.9,3.7-161.9,3.7l1.9,204.3L231.2,410.4z"/>
		<path class="st2" d="M518.4,284.1"/>
		<path class="st3" d="M525.5,649.1"/>
		<path class="st2" d="M22.9,130.8"/>
		<path class="st2" d="M229.4,480.2c-54.3,1.5-93.3,29.1-93.3,29.1v119.6c0,0,4.9,66.1-53.5,99.3h399.4V625.3
			c0,0-10.1,37.7-79.6,55.2c0,0-2.6,3.2-40,6.1H218.7L229.4,480.2z"/>
	</g>
	<g id="Camada_2_1_">
		<path class="st4" d="M233.2,471.2c-54.3,1.5-93.3,29.1-93.3,29.1v119.6c0,0,4.9,66.1-53.5,99.3h399.4V616.3
			c0,0-10.1,37.7-79.6,55.2c0,0-2.6,3.2-40,6.1H222.5L233.2,471.2z"/>
		<path class="st4" d="M650.3,571.4"/>
	</g>
</g>
<g id="Elementos_Soltos_Logo">
	<g>
		<path class="st2" d="M111.4,73.8c0,0,407.6,3.3,438.7-18.5c0,0,14.5,98.3,7.7,115.5c0,0-20.5-63.7-104.3-61.9
			c-9.5,0.2-190.4,4.4-190.4,4.4l2.2,240.3c0,0-69.3,46.9-110.8,40.4c0,0,4.4-7,4.6-15.4C159.1,378.6,169.6,82.1,111.4,73.8z"/>
		<path class="st5" d="M44.1,502.9c0,0,39.7-88.1,132.9-119.8c0,0,42.1-9.6,93.2-31.7c0,0,61.4-44.2,130-60.4c0,0,124.8-24,216.2,34
			c0,0-57.6,12.8-108.6,45c0,0-106.1,96.3-208,60.9c0,0,149.5-37.8,166.8-99.9c0,0-69.5,54.7-172.8,62.5
			C293.8,393.7,165.3,390.4,44.1,502.9z"/>
		<path class="st6" d="M534.3,498.2"/>
		<path class="st6" d="M353.1,257.1"/>
		<path class="st2" d="M95.4,726.3h469.8V605.2c0,0-23.9,64.6-140.8,72.1H255.5L268,434.5c0,0-56.5-1.3-109.7,34.3v140.7
			C158.3,609.4,161.6,689.3,95.4,726.3z"/>
	</g>
</g>
</svg>
